<svg data-v-423bf9ae="" xmlns="http://www.w3.org/2000/svg" viewBox="0 0 359.2837501270338 185" class="iconAboveSlogan"><!----><defs data-v-423bf9ae=""><linearGradient data-v-423bf9ae="" gradientTransform="rotate(25)" id="a869f2e1-9ab2-44dc-910f-e8163782d2a0" x1="0%" y1="0%" x2="100%" y2="0%"><stop data-v-423bf9ae="" offset="0%" style="stop-color: rgb(235, 76, 0); stop-opacity: 1;"></stop><stop data-v-423bf9ae="" offset="100%" style="stop-color: rgb(242, 169, 0); stop-opacity: 1;"></stop></linearGradient></defs><!----><g data-v-423bf9ae="" id="5669eae5-e818-409e-a900-f2302e9b994c" fill="#ffffff" transform="matrix(5.791505450303629,0,0,5.791505450303629,-8.571430357587445,81.10811075564148)"><path d="M6.45 14L7.94 14.01L3.95 10.35C6.23 10.25 7.85 8.99 7.85 7.11C7.85 5.12 6.10 3.78 3.70 3.78L1.48 3.78L1.48 14L2.58 14L2.58 10.35ZM3.68 4.73C5.53 4.73 6.75 5.68 6.75 7.11C6.75 8.51 5.53 9.42 3.70 9.42L2.58 9.42L2.58 4.73ZM15.18 6.72L15.18 12.18C14.24 12.82 13.29 13.22 12.46 13.22C11.37 13.22 10.77 12.60 10.77 11.42L10.77 6.72L9.72 6.72L9.72 11.47C9.72 13.22 10.65 14.14 12.19 14.14C13.27 14.14 14.22 13.78 15.30 13.06L15.48 14L16.23 14L16.23 6.72ZM22.92 6.58C21.76 6.58 20.69 6.99 19.57 7.78L19.40 6.72L18.65 6.72L18.65 14L19.68 14L19.68 8.65C20.68 7.98 21.74 7.50 22.65 7.50C23.76 7.50 24.39 8.12 24.39 9.30L24.39 14L25.44 14L25.44 9.25C25.44 7.50 24.49 6.58 22.92 6.58ZM31.79 3.78L28.04 3.78L28.04 14L31.79 14C34.71 14 37.02 11.94 37.02 8.89C37.02 5.87 34.72 3.78 31.79 3.78ZM31.79 13.06L29.13 13.06L29.13 4.72L31.79 4.72C33.96 4.72 35.90 6.23 35.90 8.89C35.90 11.54 33.96 13.06 31.79 13.06ZM38.46 10.33C38.46 12.45 40.04 14.14 42.27 14.14C44.48 14.14 46.06 12.45 46.06 10.33C46.06 8.25 44.48 6.58 42.27 6.58C40.04 6.58 38.46 8.25 38.46 10.33ZM39.49 10.36C39.49 8.76 40.64 7.49 42.27 7.49C43.88 7.49 45.01 8.76 45.01 10.36C45.01 11.94 43.88 13.23 42.27 13.23C40.64 13.23 39.49 11.94 39.49 10.36ZM52.23 6.58C51.07 6.58 50.01 6.99 48.89 7.78L48.72 6.72L47.96 6.72L47.96 14L49.00 14L49.00 8.65C49.99 7.98 51.06 7.50 51.97 7.50C53.07 7.50 53.70 8.12 53.70 9.30L53.70 14L54.75 14L54.75 9.25C54.75 7.50 53.80 6.58 52.23 6.58ZM60.19 6.58C58.14 6.58 56.56 8.19 56.56 10.33C56.56 12.50 58.10 14.14 60.20 14.14C61.87 14.14 63.13 13.06 63.36 11.76L62.37 11.76C62.16 12.66 61.31 13.23 60.20 13.23C58.76 13.23 57.69 12.15 57.58 10.63L63.41 10.63L63.50 10.54C63.69 8.41 62.20 6.58 60.19 6.58ZM57.62 9.74C57.88 8.39 58.94 7.48 60.17 7.48C61.46 7.48 62.36 8.48 62.50 9.76Z"></path></g><!----><g data-v-423bf9ae="" id="f8743d0c-d0a6-459f-81c8-da240761c573" transform="matrix(3.5009918479712523,0,0,3.5009918479712523,123.73391310609384,-10.86812131731076)" stroke="none" fill="#ffffff"><path d="M29.051 10.359c-.473-.259-1.127-.252-1.609-.523-.943-.534-1.186-1.315-1.226-2.475-2.06-2.215-5.138-4.176-9.425-4.114-1.161.018-2.255-.035-3.157.436-.258.354-.004.516.288.599-.29.138-.692.146-.626.697 2.72-.384 7.475.624 7.117 2.966-.08.521-.735 1.076-1.188 1.562-1.263 1.383-2.599 2.45-3.761 3.667l.336.336c.742-.521 1.44-.784 2.104-.784.707 0 1.121.297 1.271.433.574-.618 1.166-1.244 1.841-1.853.485-.444 1.049-1.1 1.562-1.179l.947-.101c1.153.047 1.938.29 2.475 1.231.271.481.271 1.14.521 1.613.178.324.938 1.218 1.312 1.229.295.009.604-.199.896-.49l1.031-1.034c.291-.294.502-.6.489-.896.019-.378-.874-1.144-1.198-1.32zm-15.517 5.495l-.741-.741c-3.139 2.643-6.52 5.737-9.531 8.589-.473.443-1.452 1.021-1.506 1.539-.083.781.95 1.465 1.506 2 .556.533 1.212 1.602 1.994 1.51.509-.043 1.095-1.029 1.544-1.502a259.48 259.48 0 0 0 6.883-7.509 81.261 81.261 0 0 1-.498-.597c-.137-.192-.893-1.372.349-3.289zm7.62.289c-.367-.317-1.467.144-1.771-.121-.312-.267.171-1.259-.062-1.455-.479-.406-.771-.646-.771-.646s-.862-.829-2.812.929L7.953 7.069c-.395-.396-.237-1.823-.237-1.823l-3.686-2.1-.894.895 2.1 3.687s1.428-.158 1.824.236l7.792 7.793c-1.548 1.831-.895 2.752-.895 2.752s.238.288.646.771c.196.229 1.188-.245 1.455.062.264.312-.196 1.41.12 1.777 2.667 3.062 6.926 7.734 8.125 7.734.892 0 2.021-.729 2.948-1.646.925-.917 1.639-2.057 1.639-2.939.001-1.202-4.672-5.459-7.736-8.125z"></path></g><!----><g data-v-423bf9ae="" id="341bae02-a04e-454e-861c-5e56cb4b4c8a" fill="#ffffff" transform="matrix(0.661826885999622,0,0,0.661826885999622,45.30241101426628,201.7450049460836)"><path d="M0.10 3.51C0.10 3.75 0.21 3.77 0.38 3.77L0.88 3.77C0.97 3.77 3.11 10.99 3.14 11.07C3.49 12.14 3.60 12.99 3.91 12.99C4.13 12.99 4.23 12.67 4.51 12.26C4.66 12.05 4.76 12.01 4.90 11.66L6.89 6.45C6.96 6.29 6.99 6.20 7.01 6.20C7.04 6.20 7.07 6.29 7.11 6.45C7.71 8.51 8.39 11.03 8.40 11.07C8.75 12.14 8.86 12.99 9.17 12.99C9.39 12.99 9.49 12.67 9.77 12.26C9.93 12.05 10.02 12.01 10.16 11.66L13.26 4.06C13.36 3.81 13.36 3.77 13.72 3.77C13.96 3.77 14.01 3.71 14.01 3.53C14.01 3.32 13.97 3.26 13.78 3.26C13.64 3.26 13.33 3.30 12.82 3.30C12.08 3.30 11.58 3.26 11.38 3.26C11.20 3.26 11.10 3.28 11.10 3.51C11.10 3.75 11.21 3.77 11.38 3.77L12.29 3.77C12.36 3.77 12.38 3.81 12.38 3.95C12.38 4.63 10.78 8.72 10.07 10.63C9.93 10.99 9.86 11.17 9.81 11.17C9.76 11.17 9.70 10.99 9.58 10.60C9.49 10.30 8.57 7.18 8.04 5.22C7.99 5.05 7.78 4.17 7.78 3.85C7.78 3.81 7.78 3.79 7.80 3.77L8.68 3.77C8.86 3.77 8.96 3.75 8.96 3.56C8.96 3.32 8.92 3.26 8.72 3.26C8.40 3.26 7.46 3.30 7.04 3.30C6.62 3.30 5.71 3.26 5.49 3.26C5.31 3.26 5.21 3.28 5.21 3.51C5.21 3.75 5.32 3.77 5.49 3.77L6.29 3.77C6.33 3.77 6.51 4.27 6.66 4.83C6.72 5.05 6.76 5.15 6.76 5.25C6.76 5.31 6.76 5.38 6.72 5.49L4.72 10.60C4.62 10.82 4.59 10.95 4.55 10.95C4.51 10.95 4.48 10.84 4.40 10.60C4.31 10.32 3.30 7.27 2.70 5.22C2.66 5.08 2.34 3.96 2.32 3.85C2.34 3.77 2.38 3.77 2.42 3.77L3.12 3.77C3.35 3.77 3.42 3.75 3.42 3.56C3.42 3.32 3.37 3.26 3.18 3.26C2.86 3.26 2.14 3.30 1.72 3.30C1.30 3.30 0.60 3.26 0.38 3.26C0.20 3.26 0.10 3.28 0.10 3.51ZM20.24 10.01C20.24 11.68 21.21 12.85 22.97 12.85C24.43 12.85 25.42 11.56 25.42 11.48C25.42 11.45 25.19 11.24 25.14 11.24C25.06 11.24 24.47 12.15 23.30 12.15C22.29 12.15 21.29 11.33 21.29 9.88C21.29 9.72 21.31 9.49 21.34 9.42C21.55 9.42 24.30 9.49 24.46 9.49C24.60 9.49 25.26 9.46 25.26 9.28C25.26 8.09 24.54 7.01 23.13 7.01C21.42 7.01 20.24 8.33 20.24 10.01ZM21.36 9.03C21.42 8.34 22.06 7.41 22.96 7.41C23.39 7.41 24.21 7.70 24.21 8.99C24.21 9.04 24.04 9.03 23.69 9.04C22.99 9.07 21.56 9.10 21.49 9.10C21.38 9.10 21.36 9.09 21.36 9.03ZM32.94 3.58C32.94 3.65 32.96 3.65 33.01 3.65C33.07 3.65 33.66 3.60 33.74 3.60C33.81 3.60 33.87 3.57 33.89 3.82C34.01 5.07 34.05 10.37 34.05 11.06C34.05 11.44 34.05 12.21 33.98 12.21L33.26 12.21C33.11 12.21 33.10 12.29 33.10 12.43C33.10 12.59 33.11 12.67 33.28 12.67C33.70 12.67 34.27 12.64 34.62 12.64C35.03 12.64 35.52 12.67 35.78 12.67C35.95 12.67 35.95 12.60 35.95 12.43C35.95 12.28 35.95 12.21 35.78 12.21L35.18 12.21C35.13 12.21 35.11 12.05 35.11 11.70C35.11 8.89 35.04 7.62 35.03 3.32C35.03 3.16 35.03 3.07 34.89 3.07C34.80 3.07 33.71 3.15 33.15 3.19C33.04 3.21 33.01 3.19 32.98 3.32C32.96 3.42 32.94 3.57 32.94 3.58ZM43.54 3.58C43.54 3.65 43.55 3.65 43.61 3.65C43.67 3.65 44.25 3.60 44.34 3.60C44.41 3.60 44.46 3.57 44.49 3.82C44.60 5.07 44.65 10.37 44.65 11.06C44.65 11.44 44.65 12.21 44.58 12.21L43.86 12.21C43.71 12.21 43.69 12.29 43.69 12.43C43.69 12.59 43.71 12.67 43.88 12.67C44.30 12.67 44.87 12.64 45.22 12.64C45.63 12.64 46.12 12.67 46.38 12.67C46.55 12.67 46.55 12.60 46.55 12.43C46.55 12.28 46.55 12.21 46.38 12.21L45.78 12.21C45.72 12.21 45.71 12.05 45.71 11.70C45.71 8.89 45.64 7.62 45.63 3.32C45.63 3.16 45.63 3.07 45.49 3.07C45.40 3.07 44.31 3.15 43.75 3.19C43.64 3.21 43.61 3.19 43.58 3.32C43.55 3.42 43.54 3.57 43.54 3.58ZM64.30 8.15C64.30 11.17 66.64 12.80 68.89 12.80C71.68 12.80 73.65 10.89 73.65 8.06C73.65 5.33 71.90 3.11 69.10 3.11C66.50 3.11 64.30 5.10 64.30 8.15ZM65.70 7.77C65.70 5.64 66.99 3.58 68.96 3.58C71.20 3.58 72.28 5.81 72.28 7.94C72.28 10.08 71.18 12.32 68.91 12.32C66.92 12.32 65.70 10.28 65.70 7.77ZM81.54 7.71C81.54 7.76 81.56 7.76 81.63 7.76C81.68 7.76 82.39 7.73 82.47 7.73C82.56 7.73 82.59 9.20 82.59 10.33C82.59 11.24 82.57 12.21 82.47 12.21L81.86 12.21C81.69 12.21 81.69 12.29 81.69 12.43C81.69 12.59 81.70 12.67 81.87 12.67C82.29 12.67 82.77 12.64 83.12 12.64C83.52 12.64 84.38 12.67 84.64 12.67C84.83 12.67 84.83 12.56 84.83 12.43C84.83 12.29 84.81 12.21 84.64 12.21L83.72 12.21C83.62 12.21 83.59 11.47 83.59 10.68C83.59 9.46 83.71 7.87 84.35 7.87C84.59 7.87 84.87 8.32 85.18 8.32C85.44 8.32 85.75 7.85 85.75 7.69C85.75 7.49 85.36 7.04 84.91 7.04C84.46 7.04 83.89 7.49 83.57 8.26C83.50 8.40 83.51 8.46 83.51 8.23C83.51 7.98 83.52 7.64 83.52 7.42C83.52 7.29 83.52 7.29 83.36 7.29C83.26 7.29 82.36 7.32 81.84 7.34C81.65 7.34 81.62 7.34 81.59 7.45C81.58 7.52 81.54 7.66 81.54 7.71ZM93.02 15.02C93.02 16.18 94.49 16.70 95.65 16.70C97.47 16.70 98.77 15.79 98.77 14.34C98.77 12.47 95.89 12.67 94.11 12.56C94.08 12.56 93.94 12.32 93.94 12.18C93.94 12.12 93.95 12.10 93.97 12.10C94.91 11.83 95.75 11.62 96.39 11.37C97.40 10.99 98.03 10.40 98.03 9.20C98.03 8.62 97.86 8.26 97.86 8.20C97.86 8.16 98.49 8.05 98.63 8.04C98.70 8.04 98.71 7.97 98.71 7.91C98.71 7.76 98.64 7.48 98.55 7.48C98.13 7.50 97.58 7.74 97.52 7.74C97.45 7.74 96.85 7.03 95.79 7.03C94.53 7.03 93.28 7.90 93.28 9.16C93.28 10.49 94.05 11.16 95.09 11.45C95.16 11.47 95.21 11.48 95.21 11.49C95.21 11.51 93.81 11.87 93.76 11.89C93.55 11.93 93.48 12.12 93.48 12.38C93.48 12.53 93.49 12.78 93.60 13.06C93.70 13.27 93.97 13.36 94.21 13.36L94.71 13.36C95.00 13.36 94.95 13.36 94.74 13.43C94.04 13.62 93.02 14.11 93.02 15.02ZM93.73 14.92C93.73 14.04 94.84 13.59 95.49 13.59C96.53 13.59 97.89 13.92 97.89 14.67C97.89 15.86 96.68 16.25 95.63 16.25C94.79 16.25 93.73 15.81 93.73 14.92ZM94.26 9.10C94.26 8.19 94.95 7.46 95.72 7.46C96.54 7.46 97.08 8.09 97.08 9.18C97.08 10.43 96.26 11.23 95.75 11.23C95.42 11.23 94.26 10.46 94.26 9.10ZM106.25 11.61C106.25 12.35 106.78 12.84 107.66 12.84C108.28 12.84 108.99 12.45 109.40 12.19C109.49 12.14 109.51 12.11 109.55 12.24C109.63 12.46 109.69 12.88 110.14 12.88C110.24 12.88 110.47 12.74 110.73 12.56C111.06 12.31 111.44 12.04 111.44 12.01C111.44 11.93 111.29 11.73 111.22 11.73C111.19 11.73 110.77 12.08 110.66 12.08C110.61 12.08 110.40 12.01 110.40 11.70C110.40 11.40 110.49 9.56 110.49 8.85C110.49 7.73 110.05 6.97 108.61 6.97C107.69 6.97 106.44 7.67 106.44 8.85C106.44 9.00 106.50 9.11 106.57 9.11C106.64 9.11 107.14 8.86 107.38 8.69C107.46 8.64 107.48 8.50 107.48 8.41C107.48 7.84 107.51 7.63 107.88 7.48C108.01 7.42 108.18 7.39 108.32 7.39C109.48 7.39 109.49 8.32 109.49 9.31C109.49 9.44 109.49 9.48 109.42 9.49C108.04 9.73 106.25 10.32 106.25 11.61ZM107.31 11.21C107.31 10.58 107.94 10.22 108.60 10.01C108.99 9.88 109.41 9.80 109.45 9.80C109.48 9.80 109.49 9.81 109.49 9.91L109.49 11.75C109.49 11.84 108.71 12.14 108.18 12.14C107.62 12.14 107.31 11.65 107.31 11.21ZM118.94 7.73C118.94 7.77 118.96 7.80 119.01 7.80C119.07 7.80 119.76 7.74 119.80 7.74C119.88 7.74 119.94 7.70 119.95 7.90C119.98 8.33 119.98 8.81 119.98 9.28C119.98 9.73 119.95 12.21 119.87 12.21L119.24 12.21C119.07 12.21 119.06 12.29 119.06 12.43C119.06 12.59 119.06 12.67 119.24 12.67C119.66 12.67 120.16 12.64 120.51 12.64C120.92 12.64 121.42 12.67 121.69 12.67C121.87 12.67 121.87 12.56 121.87 12.43C121.87 12.29 121.87 12.21 121.67 12.21L121.14 12.21C121.02 12.21 121.00 12.21 121.00 11.98C121.00 10.84 121.02 9.67 121.02 8.53C121.02 8.41 121.03 8.36 121.24 8.25C121.52 8.11 121.93 7.85 122.47 7.85C123.52 7.85 123.77 8.62 123.77 9.63C123.77 11.03 123.75 12.21 123.69 12.21L123.09 12.21C122.93 12.21 122.86 12.26 122.86 12.45C122.86 12.61 122.86 12.67 123.07 12.67C123.49 12.67 123.94 12.64 124.29 12.64C124.70 12.64 125.08 12.67 125.34 12.67C125.54 12.67 125.55 12.56 125.55 12.43C125.55 12.25 125.50 12.21 125.31 12.21L124.89 12.21C124.78 12.21 124.78 12.21 124.78 12.08C124.78 11.87 124.85 10.47 124.85 9.70C124.85 8.33 124.60 7.18 122.95 7.18C122.08 7.18 121.56 7.63 121.14 7.90C121.04 7.95 120.99 8.05 120.99 7.90L120.99 7.42C120.99 7.28 121.02 7.21 120.81 7.22C120.40 7.25 119.45 7.31 119.25 7.32C119.06 7.34 119.07 7.35 119.03 7.46C119 7.53 118.94 7.67 118.94 7.73ZM133.14 7.64C133.14 7.70 133.21 7.70 133.27 7.70C133.32 7.70 133.90 7.67 133.94 7.67C134.04 7.67 134.09 7.66 134.11 7.85C134.15 8.88 134.16 9.87 134.16 10.85C134.16 11.14 134.16 12.21 134.12 12.21L133.42 12.21C133.22 12.21 133.21 12.29 133.21 12.43C133.21 12.59 133.21 12.67 133.38 12.67C133.64 12.67 134.32 12.64 134.67 12.64C135.02 12.64 135.60 12.67 135.87 12.67C136.02 12.67 136.04 12.57 136.04 12.43C136.04 12.28 136.04 12.21 135.87 12.21L135.27 12.21C135.20 12.21 135.20 10.04 135.20 9.70L135.20 7.32C135.20 7.24 135.20 7.20 135.06 7.20C134.99 7.20 134.25 7.24 133.48 7.27C133.31 7.27 133.27 7.27 133.21 7.41C133.17 7.52 133.14 7.60 133.14 7.64ZM133.90 4.86C133.90 5.28 134.20 5.47 134.51 5.47C134.92 5.47 135.41 5.15 135.41 4.65C135.41 4.21 135.09 4.05 134.78 4.05C134.43 4.05 133.90 4.33 133.90 4.86ZM143.79 12.46C143.79 12.64 143.96 12.64 144.14 12.64L148.27 12.64C148.50 12.64 148.53 12.60 148.54 12.39C148.57 11.96 148.61 11.16 148.61 11.06C148.61 11.00 148.60 10.96 148.44 10.96C148.18 10.96 148.19 10.98 148.16 11.17L148.08 11.93C148.06 12.05 148.08 12.12 147.88 12.12L145.45 12.18C145.25 12.18 145.31 11.98 145.39 11.86L148.34 7.52C148.41 7.42 148.48 7.34 148.48 7.25C148.48 7.13 148.32 7.11 148.11 7.11L144.17 7.11C143.95 7.11 143.95 7.15 143.93 7.34C143.89 7.78 143.82 8.47 143.82 8.53C143.82 8.60 143.95 8.60 144.06 8.61C144.24 8.62 144.26 8.57 144.28 8.43L144.42 7.83C144.48 7.59 144.47 7.60 144.77 7.59L146.89 7.52C147.04 7.52 147.06 7.57 146.93 7.76L143.95 12.15C143.86 12.26 143.79 12.38 143.79 12.46ZM156.24 10.01C156.24 11.68 157.21 12.85 158.97 12.85C160.43 12.85 161.42 11.56 161.42 11.48C161.42 11.45 161.18 11.24 161.14 11.24C161.06 11.24 160.47 12.15 159.29 12.15C158.28 12.15 157.29 11.33 157.29 9.88C157.29 9.72 157.30 9.49 157.33 9.42C157.54 9.42 160.30 9.49 160.45 9.49C160.59 9.49 161.25 9.46 161.25 9.28C161.25 8.09 160.54 7.01 159.12 7.01C157.42 7.01 156.24 8.33 156.24 10.01ZM157.36 9.03C157.42 8.34 158.06 7.41 158.96 7.41C159.39 7.41 160.20 7.70 160.20 8.99C160.20 9.04 160.03 9.03 159.68 9.04C158.98 9.07 157.56 9.10 157.49 9.10C157.37 9.10 157.36 9.09 157.36 9.03ZM169.16 10.07C169.16 12.11 170.41 12.82 171.67 12.82C172.21 12.82 172.89 12.57 173.36 12.28C173.47 12.21 173.52 12.22 173.52 12.29C173.52 12.35 173.50 12.77 173.50 12.80C173.50 12.92 173.52 12.96 173.61 12.96C173.68 12.96 175.34 12.74 175.34 12.74C175.46 12.73 175.46 12.57 175.46 12.38C175.46 12.28 175.41 12.28 175.32 12.29C175.18 12.31 174.86 12.36 174.82 12.36C174.58 12.36 174.52 12.24 174.51 11.63C174.50 11.13 174.48 10.47 174.48 10.02C174.48 5.68 174.57 3.74 174.57 3.26C174.57 3.07 174.55 3.04 174.50 3.04C174.27 3.04 173.43 3.19 172.51 3.29C172.40 3.30 172.41 3.33 172.38 3.51C172.35 3.70 172.37 3.77 172.44 3.77C172.54 3.77 173.29 3.64 173.38 3.64C173.46 3.64 173.53 6.51 173.53 7.41C173.53 7.52 173.52 7.60 173.49 7.60C173.45 7.60 172.84 7.25 172.05 7.25C170.41 7.25 169.16 8.46 169.16 10.07ZM170.27 9.97C170.27 8.74 171.01 7.62 172.21 7.62C172.93 7.62 173.53 8.16 173.53 8.30L173.53 11.80C173.53 12.00 172.73 12.22 172.35 12.22C170.87 12.22 170.27 11.26 170.27 9.97ZM193.09 3.49C193.09 3.72 193.20 3.74 193.37 3.74L193.98 3.74C194.04 3.74 194.11 4.79 194.11 5.71C194.11 5.80 194.17 8.27 194.17 9.83L194.17 11.17C194.17 11.84 194.15 12.18 194.10 12.18L193.51 12.18C193.28 12.18 193.21 12.19 193.21 12.39C193.21 12.63 193.23 12.68 193.42 12.68C193.63 12.68 194.47 12.64 194.89 12.64C195.31 12.64 196.25 12.68 196.57 12.68C196.74 12.68 196.77 12.61 196.77 12.40C196.77 12.24 196.74 12.18 196.57 12.18L195.44 12.18C195.38 12.18 195.40 10.16 195.36 8.33C195.36 8.08 195.34 8.09 195.54 8.09L197.96 8.09C198.66 8.09 198.69 8.19 198.69 8.30L198.69 9.16C198.69 9.28 198.87 9.28 198.98 9.28C199.08 9.28 199.21 9.28 199.21 9.17C199.21 8.99 199.18 8.33 199.18 7.83C199.18 7.32 199.21 6.82 199.21 6.69C199.21 6.58 199.09 6.58 198.97 6.58C198.80 6.58 198.69 6.58 198.69 6.71L198.69 7.45C198.69 7.62 198.24 7.63 197.96 7.63L195.54 7.63C195.33 7.63 195.36 7.66 195.36 7.45C195.34 7.13 195.33 6.15 195.33 5.26C195.33 4.52 195.34 3.71 195.41 3.71C196.81 3.71 199.00 3.75 199.29 3.79C199.29 3.96 199.25 4.82 199.25 4.89C199.25 5.04 199.32 5.10 199.50 5.10C199.70 5.10 199.77 5.08 199.77 4.94C199.77 3.85 199.82 3.36 199.82 3.09C199.82 2.93 199.74 2.90 199.54 2.90C199.42 2.90 199.35 2.90 199.32 3.11C199.30 3.25 199.37 3.25 198.42 3.25C197.82 3.25 195.54 3.29 194.80 3.29C194.31 3.29 193.37 3.25 193.27 3.25C193.14 3.25 193.09 3.30 193.09 3.49ZM207.37 10.04C207.37 11.58 208.53 12.85 210.06 12.85C211.82 12.85 212.86 11.58 212.86 9.84C212.86 8.29 211.83 7.01 210.28 7.01C208.53 7.01 207.37 8.37 207.37 10.04ZM208.45 10.23C208.45 8.69 208.84 7.46 210.11 7.46C211.25 7.46 211.76 8.74 211.76 9.74C211.76 10.92 211.53 12.40 210.06 12.40C209.01 12.40 208.45 11.27 208.45 10.23ZM220.53 7.71C220.53 7.76 220.56 7.76 220.63 7.76C220.67 7.76 221.38 7.73 221.47 7.73C221.55 7.73 221.58 9.20 221.58 10.33C221.58 11.24 221.56 12.21 221.47 12.21L220.85 12.21C220.68 12.21 220.68 12.29 220.68 12.43C220.68 12.59 220.70 12.67 220.86 12.67C221.28 12.67 221.76 12.64 222.11 12.64C222.52 12.64 223.37 12.67 223.64 12.67C223.82 12.67 223.82 12.56 223.82 12.43C223.82 12.29 223.80 12.21 223.64 12.21L222.71 12.21C222.61 12.21 222.59 11.47 222.59 10.68C222.59 9.46 222.70 7.87 223.34 7.87C223.58 7.87 223.86 8.32 224.17 8.32C224.43 8.32 224.74 7.85 224.74 7.69C224.74 7.49 224.35 7.04 223.90 7.04C223.45 7.04 222.88 7.49 222.56 8.26C222.49 8.40 222.50 8.46 222.50 8.23C222.50 7.98 222.52 7.64 222.52 7.42C222.52 7.29 222.52 7.29 222.35 7.29C222.25 7.29 221.35 7.32 220.84 7.34C220.64 7.34 220.61 7.34 220.58 7.45C220.57 7.52 220.53 7.66 220.53 7.71ZM241.74 3.51C241.74 3.75 241.85 3.77 242.02 3.77L242.52 3.77C242.61 3.77 244.75 10.99 244.78 11.07C245.13 12.14 245.24 12.99 245.55 12.99C245.77 12.99 245.87 12.67 246.15 12.26C246.30 12.05 246.40 12.01 246.54 11.66L248.53 6.45C248.60 6.29 248.63 6.20 248.65 6.20C248.68 6.20 248.71 6.29 248.75 6.45C249.35 8.51 250.03 11.03 250.04 11.07C250.39 12.14 250.50 12.99 250.81 12.99C251.03 12.99 251.13 12.67 251.41 12.26C251.57 12.05 251.66 12.01 251.80 11.66L254.90 4.06C255.00 3.81 255.00 3.77 255.36 3.77C255.60 3.77 255.65 3.71 255.65 3.53C255.65 3.32 255.61 3.26 255.42 3.26C255.28 3.26 254.97 3.30 254.46 3.30C253.72 3.30 253.22 3.26 253.02 3.26C252.84 3.26 252.74 3.28 252.74 3.51C252.74 3.75 252.85 3.77 253.02 3.77L253.93 3.77C254.00 3.77 254.02 3.81 254.02 3.95C254.02 4.63 252.42 8.72 251.71 10.63C251.57 10.99 251.50 11.17 251.45 11.17C251.40 11.17 251.34 10.99 251.22 10.60C251.13 10.30 250.21 7.18 249.68 5.22C249.63 5.05 249.42 4.17 249.42 3.85C249.42 3.81 249.42 3.79 249.44 3.77L250.32 3.77C250.50 3.77 250.60 3.75 250.60 3.56C250.60 3.32 250.56 3.26 250.36 3.26C250.04 3.26 249.10 3.30 248.68 3.30C248.26 3.30 247.35 3.26 247.13 3.26C246.95 3.26 246.85 3.28 246.85 3.51C246.85 3.75 246.96 3.77 247.13 3.77L247.93 3.77C247.97 3.77 248.15 4.27 248.30 4.83C248.36 5.05 248.40 5.15 248.40 5.25C248.40 5.31 248.40 5.38 248.36 5.49L246.36 10.60C246.26 10.82 246.23 10.95 246.19 10.95C246.15 10.95 246.12 10.84 246.04 10.60C245.95 10.32 244.94 7.27 244.34 5.22C244.30 5.08 243.98 3.96 243.96 3.85C243.98 3.77 244.02 3.77 244.06 3.77L244.76 3.77C244.99 3.77 245.06 3.75 245.06 3.56C245.06 3.32 245.01 3.26 244.82 3.26C244.50 3.26 243.78 3.30 243.36 3.30C242.94 3.30 242.24 3.26 242.02 3.26C241.84 3.26 241.74 3.28 241.74 3.51ZM261.88 10.01C261.88 11.68 262.85 12.85 264.61 12.85C266.07 12.85 267.06 11.56 267.06 11.48C267.06 11.45 266.83 11.24 266.78 11.24C266.70 11.24 266.11 12.15 264.94 12.15C263.93 12.15 262.93 11.33 262.93 9.88C262.93 9.72 262.95 9.49 262.98 9.42C263.19 9.42 265.94 9.49 266.10 9.49C266.24 9.49 266.90 9.46 266.90 9.28C266.90 8.09 266.18 7.01 264.77 7.01C263.06 7.01 261.88 8.33 261.88 10.01ZM263.00 9.03C263.06 8.34 263.70 7.41 264.60 7.41C265.03 7.41 265.85 7.70 265.85 8.99C265.85 9.04 265.68 9.03 265.33 9.04C264.63 9.07 263.20 9.10 263.13 9.10C263.02 9.10 263.00 9.09 263.00 9.03ZM274.58 3.58C274.58 3.65 274.60 3.65 274.65 3.65C274.71 3.65 275.30 3.60 275.38 3.60C275.45 3.60 275.51 3.57 275.53 3.82C275.65 5.07 275.69 10.37 275.69 11.06C275.69 11.44 275.69 12.21 275.62 12.21L274.90 12.21C274.75 12.21 274.74 12.29 274.74 12.43C274.74 12.59 274.75 12.67 274.92 12.67C275.34 12.67 275.91 12.64 276.26 12.64C276.67 12.64 277.16 12.67 277.42 12.67C277.59 12.67 277.59 12.60 277.59 12.43C277.59 12.28 277.59 12.21 277.42 12.21L276.82 12.21C276.77 12.21 276.75 12.05 276.75 11.70C276.75 8.89 276.68 7.62 276.67 3.32C276.67 3.16 276.67 3.07 276.53 3.07C276.44 3.07 275.35 3.15 274.79 3.19C274.68 3.21 274.65 3.19 274.62 3.32C274.60 3.42 274.58 3.57 274.58 3.58ZM285.18 3.58C285.18 3.65 285.19 3.65 285.25 3.65C285.31 3.65 285.89 3.60 285.98 3.60C286.05 3.60 286.10 3.57 286.13 3.82C286.24 5.07 286.29 10.37 286.29 11.06C286.29 11.44 286.29 12.21 286.22 12.21L285.50 12.21C285.35 12.21 285.33 12.29 285.33 12.43C285.33 12.59 285.35 12.67 285.52 12.67C285.94 12.67 286.51 12.64 286.86 12.64C287.27 12.64 287.76 12.67 288.02 12.67C288.19 12.67 288.19 12.60 288.19 12.43C288.19 12.28 288.19 12.21 288.02 12.21L287.42 12.21C287.36 12.21 287.35 12.05 287.35 11.70C287.35 8.89 287.28 7.62 287.27 3.32C287.27 3.16 287.27 3.07 287.13 3.07C287.04 3.07 285.95 3.15 285.39 3.19C285.28 3.21 285.25 3.19 285.22 3.32C285.19 3.42 285.18 3.57 285.18 3.58ZM306.08 5.77C306.08 9.07 311.07 8.20 311.07 10.65C311.07 11.59 310.23 12.31 309.25 12.31C308.42 12.31 306.82 11.83 306.80 11.47L306.71 10.15C306.70 9.97 306.63 9.91 306.45 9.91L306.38 9.91C306.17 9.91 306.17 10.00 306.17 10.12C306.17 10.32 306.28 11.66 306.31 12.17C306.32 12.38 307.58 12.85 309.12 12.85C310.69 12.85 312.30 11.87 312.30 10.11C312.30 6.79 307.33 7.87 307.33 5.32C307.33 4.31 308.11 3.56 309.15 3.56C310.17 3.56 311.26 4.58 311.26 4.89C311.26 5.01 311.22 5.73 311.22 5.78C311.22 5.92 311.26 5.99 311.53 5.99C311.77 5.99 311.78 5.94 311.78 5.75C311.78 5.04 311.86 3.68 311.86 3.53C311.86 3.30 311.82 3.29 311.56 3.29C311.33 3.29 311.32 3.32 311.30 3.53C311.30 3.61 311.29 3.78 311.25 3.78C311.19 3.78 311.11 3.74 311.04 3.68C310.24 3.14 309.62 3.08 309.12 3.08C307.59 3.08 306.08 4.17 306.08 5.77ZM320.19 11.61C320.19 12.35 320.73 12.84 321.61 12.84C322.22 12.84 322.94 12.45 323.34 12.19C323.44 12.14 323.46 12.11 323.50 12.24C323.58 12.46 323.64 12.88 324.09 12.88C324.18 12.88 324.42 12.74 324.67 12.56C325.01 12.31 325.39 12.04 325.39 12.01C325.39 11.93 325.23 11.73 325.16 11.73C325.14 11.73 324.72 12.08 324.60 12.08C324.56 12.08 324.35 12.01 324.35 11.70C324.35 11.40 324.44 9.56 324.44 8.85C324.44 7.73 324.00 6.97 322.56 6.97C321.64 6.97 320.39 7.67 320.39 8.85C320.39 9.00 320.45 9.11 320.52 9.11C320.59 9.11 321.09 8.86 321.33 8.69C321.41 8.64 321.43 8.50 321.43 8.41C321.43 7.84 321.45 7.63 321.83 7.48C321.96 7.42 322.13 7.39 322.27 7.39C323.43 7.39 323.44 8.32 323.44 9.31C323.44 9.44 323.44 9.48 323.37 9.49C321.99 9.73 320.19 10.32 320.19 11.61ZM321.26 11.21C321.26 10.58 321.89 10.22 322.55 10.01C322.94 9.88 323.36 9.80 323.40 9.80C323.43 9.80 323.44 9.81 323.44 9.91L323.44 11.75C323.44 11.84 322.66 12.14 322.13 12.14C321.57 12.14 321.26 11.65 321.26 11.21ZM333.05 7.78C333.05 7.87 333.07 7.92 333.16 7.92L333.51 7.92C333.63 7.92 333.66 8.19 333.66 8.74C333.66 9.14 333.63 10.77 333.63 11.77C333.63 12.21 333.87 12.77 334.68 12.77C335.17 12.77 336.13 12.36 336.42 12.15C336.49 12.10 336.49 12.08 336.49 12.01C336.49 11.93 336.48 11.80 336.42 11.80C336.28 11.80 335.82 12.03 335.27 12.03C334.67 12.03 334.64 11.63 334.64 11.20L334.64 8.51C334.64 8.15 334.64 7.91 334.70 7.91L336.03 7.91C336.15 7.91 336.20 7.85 336.25 7.66C336.27 7.59 336.29 7.49 336.29 7.43C336.29 7.36 336.27 7.35 336.20 7.35L334.75 7.35C334.64 7.35 334.64 7.35 334.64 7.25C334.64 7.03 334.73 5.95 334.73 5.91C334.73 5.81 334.68 5.74 334.57 5.74C334.50 5.74 334.45 5.78 334.39 5.87L333.12 7.64C333.07 7.69 333.05 7.73 333.05 7.78ZM343.94 7.64C343.94 7.70 344.01 7.70 344.06 7.70C344.12 7.70 344.69 7.67 344.74 7.67C344.83 7.67 344.89 7.66 344.90 7.85C344.95 8.88 344.96 9.87 344.96 10.85C344.96 11.14 344.96 12.21 344.92 12.21L344.22 12.21C344.02 12.21 344.01 12.29 344.01 12.43C344.01 12.59 344.01 12.67 344.18 12.67C344.44 12.67 345.11 12.64 345.46 12.64C345.81 12.64 346.40 12.67 346.67 12.67C346.82 12.67 346.84 12.57 346.84 12.43C346.84 12.28 346.84 12.21 346.67 12.21L346.07 12.21C346.00 12.21 346.00 10.04 346.00 9.70L346.00 7.32C346.00 7.24 346.00 7.20 345.86 7.20C345.79 7.20 345.04 7.24 344.27 7.27C344.11 7.27 344.06 7.27 344.01 7.41C343.97 7.52 343.94 7.60 343.94 7.64ZM344.69 4.86C344.69 5.28 345.00 5.47 345.31 5.47C345.72 5.47 346.21 5.15 346.21 4.65C346.21 4.21 345.88 4.05 345.58 4.05C345.23 4.05 344.69 4.33 344.69 4.86ZM354.59 11.90C354.59 12.39 355.54 12.81 356.40 12.81C357.45 12.81 358.41 12.17 358.41 11.12C358.41 10.25 357.45 9.83 356.65 9.45C356.05 9.16 355.53 8.95 355.53 8.37C355.53 7.67 356.06 7.43 356.51 7.43C357.39 7.43 357.21 8.34 357.56 8.34C357.74 8.34 358.19 8.23 358.19 8.06C358.19 7.67 357.77 7.06 356.69 7.06C355.68 7.06 354.63 7.71 354.63 8.68C354.63 9.62 355.53 10.00 356.29 10.33C356.94 10.61 357.50 10.91 357.50 11.54C357.50 12.14 357.08 12.40 356.62 12.40C356.01 12.40 355.64 12.08 355.35 11.72C355.21 11.54 355.15 11.31 355.05 11.31C354.96 11.31 354.59 11.62 354.59 11.90ZM366.31 12.43C366.31 12.59 366.34 12.67 366.53 12.67C366.95 12.67 367.35 12.64 367.70 12.64C368.10 12.64 368.94 12.67 369.21 12.67C369.40 12.67 369.40 12.60 369.40 12.43C369.40 12.26 369.40 12.21 369.24 12.21L368.28 12.21C368.20 12.21 368.16 11.17 368.16 10.23L368.16 7.91C368.16 7.80 368.21 7.78 368.42 7.78L369.99 7.78C370.08 7.78 370.12 7.48 370.12 7.45C370.12 7.35 370.05 7.35 369.98 7.35L368.42 7.35C368.16 7.35 368.10 7.35 368.10 7.15C368.12 6.55 368.13 6.31 368.13 5.71C368.13 4.83 368.17 3.46 368.91 3.46C369.39 3.46 369.45 3.93 369.53 4.58C369.54 4.72 369.63 4.75 369.75 4.75C369.96 4.75 370.47 4.40 370.47 4.05C370.47 3.44 369.82 3.07 369.26 3.07C367.60 3.07 367.04 4.40 367.04 5.87C367.04 6.61 367.07 6.54 367.07 7.22C367.07 7.35 367.05 7.35 366.97 7.35L366.55 7.35C366.42 7.35 366.39 7.39 366.39 7.57C366.39 7.76 366.42 7.80 366.59 7.80L367.05 7.80C367.08 7.80 367.08 9.02 367.08 9.35L367.08 10.19C367.08 10.35 367.09 10.88 367.09 11.37C367.09 11.70 367.09 12.21 367.04 12.21L366.52 12.21C366.35 12.21 366.31 12.29 366.31 12.43ZM377.43 7.64C377.43 7.70 377.50 7.70 377.55 7.70C377.61 7.70 378.18 7.67 378.22 7.67C378.32 7.67 378.38 7.66 378.39 7.85C378.43 8.88 378.45 9.87 378.45 10.85C378.45 11.14 378.45 12.21 378.41 12.21L377.71 12.21C377.51 12.21 377.50 12.29 377.50 12.43C377.50 12.59 377.50 12.67 377.66 12.67C377.93 12.67 378.60 12.64 378.95 12.64C379.30 12.64 379.89 12.67 380.16 12.67C380.31 12.67 380.32 12.57 380.32 12.43C380.32 12.28 380.32 12.21 380.16 12.21L379.55 12.21C379.48 12.21 379.48 10.04 379.48 9.70L379.48 7.32C379.48 7.24 379.48 7.20 379.34 7.20C379.27 7.20 378.53 7.24 377.76 7.27C377.59 7.27 377.55 7.27 377.50 7.41C377.45 7.52 377.43 7.60 377.43 7.64ZM378.18 4.86C378.18 5.28 378.49 5.47 378.80 5.47C379.20 5.47 379.69 5.15 379.69 4.65C379.69 4.21 379.37 4.05 379.06 4.05C378.71 4.05 378.18 4.33 378.18 4.86ZM388.02 10.01C388.02 11.68 388.99 12.85 390.75 12.85C392.21 12.85 393.20 11.56 393.20 11.48C393.20 11.45 392.97 11.24 392.92 11.24C392.84 11.24 392.25 12.15 391.08 12.15C390.07 12.15 389.07 11.33 389.07 9.88C389.07 9.72 389.09 9.49 389.12 9.42C389.33 9.42 392.08 9.49 392.24 9.49C392.38 9.49 393.04 9.46 393.04 9.28C393.04 8.09 392.32 7.01 390.91 7.01C389.20 7.01 388.02 8.33 388.02 10.01ZM389.14 9.03C389.20 8.34 389.84 7.41 390.74 7.41C391.17 7.41 391.99 7.70 391.99 8.99C391.99 9.04 391.82 9.03 391.47 9.04C390.77 9.07 389.34 9.10 389.27 9.10C389.16 9.10 389.14 9.09 389.14 9.03ZM400.95 10.07C400.95 12.11 402.19 12.82 403.45 12.82C404.00 12.82 404.67 12.57 405.15 12.28C405.26 12.21 405.30 12.22 405.30 12.29C405.30 12.35 405.29 12.77 405.29 12.80C405.29 12.92 405.30 12.96 405.40 12.96C405.47 12.96 407.12 12.74 407.12 12.74C407.25 12.73 407.25 12.57 407.25 12.38C407.25 12.28 407.19 12.28 407.11 12.29C406.97 12.31 406.64 12.36 406.60 12.36C406.36 12.36 406.31 12.24 406.29 11.63C406.28 11.13 406.27 10.47 406.27 10.02C406.27 5.68 406.35 3.74 406.35 3.26C406.35 3.07 406.34 3.04 406.28 3.04C406.06 3.04 405.22 3.19 404.29 3.29C404.18 3.30 404.19 3.33 404.17 3.51C404.14 3.70 404.15 3.77 404.22 3.77C404.32 3.77 405.08 3.64 405.16 3.64C405.24 3.64 405.31 6.51 405.31 7.41C405.31 7.52 405.30 7.60 405.27 7.60C405.23 7.60 404.63 7.25 403.83 7.25C402.19 7.25 400.95 8.46 400.95 10.07ZM402.05 9.97C402.05 8.74 402.79 7.62 404.00 7.62C404.71 7.62 405.31 8.16 405.31 8.30L405.31 11.80C405.31 12.00 404.52 12.22 404.14 12.22C402.65 12.22 402.05 11.26 402.05 9.97Z"></path></g></svg>